<?xml version="1.0" encoding="UTF-8" standalone="no"?><!DOCTYPE svg PUBLIC "-//W3C//DTD SVG 1.1//EN" "http://www.w3.org/Graphics/SVG/1.1/DTD/svg11.dtd"><svg width="100%" height="100%" viewBox="0 0 378 369" version="1.1" xmlns="http://www.w3.org/2000/svg" xmlns:xlink="http://www.w3.org/1999/xlink" xml:space="preserve" xmlns:serif="http://www.serif.com/" style="fill-rule:evenodd;clip-rule:evenodd;stroke-linejoin:round;stroke-miterlimit:1.41421;"><path d="M188.712,0c-104.209,0 -188.712,84.484 -188.712,188.713c0,83.375 54.072,154.112 129.053,179.065c9.431,1.747 12.894,-4.094 12.894,-9.078c0,-4.497 -0.175,-19.366 -0.256,-35.134c-52.5,11.415 -63.579,-22.266 -63.579,-22.266c-8.584,-21.809 -20.953,-27.613 -20.953,-27.613c-17.122,-11.712 1.291,-11.471 1.291,-11.471c18.95,1.331 28.928,19.45 28.928,19.45c16.831,28.847 44.147,20.506 54.916,15.684c1.697,-12.194 6.584,-20.522 11.981,-25.234c-41.916,-4.769 -85.978,-20.954 -85.978,-93.263c0,-20.6 7.372,-37.434 19.444,-50.65c-1.96,-4.756 -8.419,-23.95 1.831,-49.944c0,0 15.847,-5.068 51.906,19.347c15.053,-4.181 31.197,-6.278 47.234,-6.353c16.038,0.075 32.194,2.172 47.275,6.353c36.019,-24.415 51.844,-19.347 51.844,-19.347c10.272,25.994 3.813,45.188 1.853,49.944c12.1,13.216 19.419,30.05 19.419,50.65c0,72.485 -44.147,88.441 -86.169,93.113c6.769,5.856 12.8,17.34 12.8,34.947c0,25.25 -0.215,45.571 -0.215,51.787c0,5.025 3.393,10.909 12.959,9.056c74.944,-24.981 128.947,-95.693 128.947,-179.043c0,-104.229 -84.491,-188.713 -188.713,-188.713" style="fill:#000;"/></svg>